<svg xmlns="http://www.w3.org/2000/svg" xmlns:xlink="http://www.w3.org/1999/xlink" width="500" zoomAndPan="magnify" viewBox="0 0 375 374.999991" height="500" preserveAspectRatio="xMidYMid meet"><defs><clipPath id="e048796b67"><path d="M 101 41.25 L 348 41.25 L 348 120 L 101 120 Z M 101 41.25 "></path></clipPath><clipPath id="79188703fa"><path d="M 0 256 L 348 256 L 348 333.75 L 0 333.75 Z M 0 256 "></path></clipPath></defs><g id="5914ef54b3"><g clip-rule="nonzero" clip-path="url(#e048796b67)"><path style=" stroke:none;fill-rule:nonzero;fill:#2a4ff6;fill-opacity:1;" d="M 347.859375 119.9375 L 101.332031 119.9375 L 136.992188 41.25 L 217.308594 41.25 C 270.644531 41.25 320.339844 69.777344 346 116.527344 C 346.695312 117.613281 347.238281 118.773438 347.859375 119.9375 Z M 347.859375 119.9375 "></path></g><path style=" stroke:none;fill-rule:nonzero;fill:#2a4ff6;fill-opacity:1;" d="M 172.652344 146.683594 L 359.722656 146.683594 C 359.722656 146.683594 374.605469 176.375 359.722656 226.84375 L 136.992188 226.84375 Z M 172.652344 146.683594 "></path><g clip-rule="nonzero" clip-path="url(#79188703fa)"><path style=" stroke:none;fill-rule:nonzero;fill:#2a4ff6;fill-opacity:1;" d="M 36.054688 256.535156 L 347.859375 256.535156 C 347.859375 256.535156 322.429688 314.601562 255.21875 330.261719 C 244.828125 332.664062 234.207031 333.75 223.511719 333.75 L 0.394531 333.75 Z M 36.054688 256.535156 "></path></g><g style="fill:#ffffff;fill-opacity:1;"><g transform="translate(105.183689, 173.364269)"><path style="stroke:none" d="M 0.140625 0 C 0.117188 0 0.101562 0 0.09375 0 C 0.0820312 -0.0078125 0.0703125 -0.0195312 0.0625 -0.03125 C 0.0507812 -0.0390625 0.046875 -0.0546875 0.046875 -0.078125 C 0.046875 -0.0859375 0.0507812 -0.0976562 0.0625 -0.109375 C 0.0703125 -0.128906 0.0820312 -0.140625 0.09375 -0.140625 C 0.101562 -0.148438 0.117188 -0.15625 0.140625 -0.15625 C 0.160156 -0.15625 0.175781 -0.148438 0.1875 -0.140625 C 0.195312 -0.140625 0.203125 -0.128906 0.203125 -0.109375 C 0.210938 -0.0976562 0.21875 -0.0859375 0.21875 -0.078125 C 0.21875 -0.0546875 0.207031 -0.0351562 0.1875 -0.015625 C 0.175781 -0.00390625 0.160156 0 0.140625 0 Z M 0.140625 0 "></path></g></g></g></svg>